<svg xmlns="http://www.w3.org/2000/svg" viewBox="0 0 1024 1024">
  <defs>
    <!-- Gradientes y filtros base -->
    <linearGradient id="bgGradient" x1="0%" y1="0%" x2="100%" y2="100%">
      <stop offset="0%" style="stop-color:#0A192F"/>
      <stop offset="100%" style="stop-color:#172A45"/>
    </linearGradient>
    
    <linearGradient id="glowGradient" x1="0%" y1="0%" x2="100%" y2="100%">
      <stop offset="0%" style="stop-color:#4FFBDF"/>
      <stop offset="100%" style="stop-color:#00B5E2"/>
    </linearGradient>

    <!-- Filtro de brillo mejorado -->
    <filter id="glow" x="-50%" y="-50%" width="200%" height="200%">
      <feGaussianBlur in="SourceGraphic" stdDeviation="4" result="blur"/>
      <feColorMatrix in="blur" type="matrix" values="0 0 0 0 0   0 0 0 0 1   0 0 0 0 1  0 0 0 0.7 0"/>
    </filter>

    <!-- Filtro de texto más pronunciado -->
    <filter id="textGlow" x="-50%" y="-50%" width="200%" height="200%">
      <feGaussianBlur in="SourceGraphic" stdDeviation="2" result="blur"/>
      <feColorMatrix in="blur" type="matrix" values="0 0 0 0 0   0 0 0 0 1   0 0 0 0 1  0 0 0 1 0"/>
      <feMerge>
        <feMergeNode in="blur"/>
        <feMergeNode in="SourceGraphic"/>
      </feMerge>
    </filter>
  </defs>

  <!-- Fondo -->
  <rect width="1024" height="1024" fill="url(#bgGradient)"/>

  <!-- Círculos decorativos -->
  <circle cx="512" cy="512" r="400" fill="none" stroke="#1A365D" stroke-width="2"/>
  <circle cx="512" cy="512" r="300" fill="none" stroke="#1A365D" stroke-width="2"/>

  <!-- Cadena de ADN más detallada -->
  <g transform="translate(512,512) rotate(45)">
    <!-- Estructura helicoidal -->
    <path d="M-200,-100 C-150,-150 150,-150 200,-100
             M-200,-50  C-150,-100 150,-100 200,-50
             M-200,0    C-150,-50  150,-50  200,0
             M-200,50   C-150,0    150,0    200,50
             M-200,100  C-150,50   150,50   200,100"
          stroke="#4FFBDF" stroke-width="2" fill="none" filter="url(#glow)" opacity="0.6"/>
    
    <!-- Enlaces entre cadenas -->
    <g stroke="#4FFBDF" stroke-width="1.5">
      <line x1="-180" y1="-90" x2="-180" y2="-40"/>
      <line x1="-120" y1="-70" x2="-120" y2="-20"/>
      <line x1="-60"  y1="-50" x2="-60"  y2="0"/>
      <line x1="0"    y1="-30" x2="0"    y2="20"/>
      <line x1="60"   y1="-10" x2="60"   y2="40"/>
      <line x1="120"  y1="10"  x2="120"  y2="60"/>
      <line x1="180"  y1="30"  x2="180"  y2="80"/>
    </g>
  </g>

  <!-- Logo de Python -->
  <g transform="translate(712,312)">
    <!-- Cuerpo de la serpiente -->
    <path d="M-40,0 C-30,-20 -10,-20 0,-10 C10,0 30,0 40,-10"
          stroke="#4FFBDF" stroke-width="4" fill="none"/>
    <!-- Cabeza de la serpiente -->
    <circle cx="-40" cy="0" r="8" fill="#4FFBDF"/>
    <!-- Ojo -->
    <circle cx="-43" cy="-2" r="2" fill="#0A192F"/>
  </g>

  <!-- Texto GENOME INDEXER mejorado -->
  <g transform="translate(512,200)">
    <!-- Sombra del texto -->
    <text text-anchor="middle" font-family="Arial Black, Arial" font-weight="900" filter="url(#textGlow)">
      <tspan x="0" y="0" font-size="64" fill="#4FFBDF" letter-spacing="5">GENOME</tspan>
      <tspan x="0" y="70" font-size="64" fill="#00B5E2" letter-spacing="5">INDEXER</tspan>
    </text>
    <!-- Texto principal -->
    <text text-anchor="middle" font-family="Arial Black, Arial" font-weight="900">
      <tspan x="0" y="0" font-size="64" fill="#4FFBDF" letter-spacing="5">GENOME</tspan>
      <tspan x="0" y="70" font-size="64" fill="#00B5E2" letter-spacing="5">INDEXER</tspan>
    </text>
  </g>

  <!-- Servidor central y elementos de conexión -->
  <g transform="translate(462,462)">
    <rect x="-50" y="-50" width="100" height="100" rx="10" fill="#2D3748" stroke="#4FFBDF" stroke-width="2"/>
    <text x="0" y="0" font-family="Arial" font-size="14" fill="#4FFBDF" text-anchor="middle">API</text>
  </g>

  <!-- Líneas de conexión -->
  <g stroke="url(#glowGradient)" stroke-width="2" fill="none">
    <path d="M512,412 Q412,312 312,412" filter="url(#glow)"/>
    <path d="M512,412 Q612,312 712,412" filter="url(#glow)"/>
    <path d="M512,612 Q412,712 312,612" filter="url(#glow)"/>
    <path d="M512,612 Q612,712 712,612" filter="url(#glow)"/>
  </g>

  <!-- Elementos de datos y paneles -->
  <g transform="translate(312,612)">
    <rect x="-40" y="-20" width="80" height="40" rx="5" fill="#2D3748" stroke="#4FFBDF"/>
    <line x1="-30" y1="0" x2="30" y2="0" stroke="#4FFBDF" stroke-width="2"/>
  </g>

  <g transform="translate(712,612)">
    <rect x="-40" y="-30" width="80" height="60" rx="5" fill="#2D3748" stroke="#4FFBDF"/>
    <polyline points="-30,0 -15,-15 0,10 15,-20 30,0" 
              stroke="#4FFBDF" stroke-width="2" fill="none"/>
  </g>
</svg>
